<?xml version="1.0" encoding="UTF-8"?>
<svg id="Layer_1" xmlns="http://www.w3.org/2000/svg" version="1.1" viewBox="0 0 323.37 369.67">
  <!-- Generator: Adobe Illustrator 29.8.1, SVG Export Plug-In . SVG Version: 2.1.1 Build 2)  -->
  <defs>
    <style>
      .st0 {
        fill: #bdbec1;
        font-family: Chalkduster, Chalkduster;
        font-size: 40.12px;
      }

      .st0, .st1 {
        isolation: isolate;
      }

      .st2 {
        fill: #231f20;
      }

      .st3 {
        fill: #b7e3ea;
        stroke: #000;
        stroke-miterlimit: 10;
        stroke-width: 3px;
      }
    </style>
  </defs>
  <polygon class="st3" points="316.66 94.09 161.36 4.49 6.16 94.09 6.16 273.39 161.36 362.99 316.66 273.39 316.66 94.09"/>
  <path class="st2" d="M65.16,76.29c3.4-1.9,4.2,1.4,5.4,2.9,2.4,2.6-2.3,2.7-1.9,5.7,6.9,6.6,14.4,13.9,22,21.3,1.9-1.2,2.6-2.8,3.3-4.7-3,0-3.7-2.7-5.7-4.4,4.9-4.2,10-7.5,15.3-10.5,13.7-7.8,28.5-12.5,44.2-14.2,43-4.5,79.3,8.9,107.9,41.5,14.4,16.4,22.8,36,26.2,57.7,3.7,23,1.4,45.3-8.1,66.4-16.5,36.8-44.6,59.9-83.7,69.6-9.6,2.4-19.4,3.7-29.3,3.5-30.5-.7-57.7-10.6-80.7-30.9-21.7-19.2-34.7-43.3-39-72-.8-5.5-1.2-11.2-1.2-16.8,0-4,.3-4.3,4.2-4.5,5.5-.3,10.5.9,14.9,4.6,2.9,2.5,6.1,1.9,9-1.2,3.3-3.6,5.1-8,6.7-12.4,2.9-7.8,4.6-16,7.3-23.9,1.3-3.9,2.9-7.6,5.7-10.7,3.6-3.8,7.3-4.3,11.7-1.3,2.2,1.5,4,3.3,6.1,4.9,4.2,3.3,7.6,3,11.1-1.1,3.9-4.5,5.9-10,8.3-15.3,3.3-7.5,6.2-15.3,10.8-22.2,1.6-2.4,3.4-4.7,5.9-6.4,4.6-3.1,9.2-2.8,13.2,1.1,3.7,3.6,5.6,8.3,7.4,13,3.7,9.7,6.5,19.7,10.6,29.2,1.8,4.2,3.7,8.3,6.4,12,7.1,10,17.8,10.2,25.5.7,3-3.7,5.2-7.9,7.7-12,1.3-2.2,2.6-4.3,4-6.4,1.9-2.7,4.2-4.8,2.9-8.9-1-3.3,1.2-6.4,4.5-8,3.5-1.7,6.9-1.2,9.8,1.2,2.7,2.2,3.5,5.2,2.6,8.7-.3,1.1-.9,2.1.1,3.3,6.7,8.2,9.6,18.2,13.5,27.8,2.1,5.2,4.4,10.3,8,14.8,3.8,4.7,8.5,7.8,14.6,8.7,3.4.5,3.8.4,3.5-3.2-.8-11.6-2.9-23-7.3-33.9-15.5-38.4-44.3-60.9-84.3-68.9-26.7-5.3-52.4-1.2-76.5,11.9-2.8,1.5-4.2,3.4-4.9,6.5-2.8,12.4-11.2,19.7-22.5,24.2-3.7,1.5-7.6,2.3-11.5,2.9-1,.2-1.9.3-2.7,1-.3,1,.3,1.9.7,2.7,7.9,16.2,1.9,32.7-11.2,42.9-3.9,3.1-8.1,5.6-12.7,7.5-6.2,2.6-10.7,6.9-12.5,13.6-.4,1.5-1.1,2.1-2.6,2.1-1.6-.1-3.3,0-4.8,0-1-1.4-.6-2.6-.3-3.8.9-3.8,2.3-7.5,5.1-10.3,2.3-2.3,2-4.2,1-6.9-4.1-10.7-4.9-21.7-1.1-32.7,4.6-13.2,14.4-20.4,28-22.8,6.6-1.1,13.2-1.6,19.7-3.5,3.5-1,6.8-2.3,9.8-4.4,1.3-.9,1.7-1.8.4-3-6.9-6.5-13.8-13.1-20.6-19.6-.2-.2-.5-.2-.8-.4-4,3.3-4.2,5.7-.7,9.1,4.1,3.9,8.2,7.7,12.2,11.6.7.6,1.5,1.2,1.8,2.2-3.9,2.7-5.4,2.6-8.5-.5-3.1-3-6.3-6-9.8-9.3-1.7,5.1.2,9.3.5,13.6-1.8,1.2-3.8,1.1-5.7,1.5-1.8.3-2-1.2-2.2-2.4-2.5-13.9.7-26.1,10.9-36.2.5-.7,1.4-1.4,2.4-2.3M161.66,303.19c8.1.2,16.1-.7,23.9-2.6,40.6-9.5,68.8-33.5,83.9-72.5,3.7-9.5,5.2-19.6,6.2-29.7.1-1.4.4-3.1-1.9-3.1-8.3.2-16.3,1.4-22.8,7-7.5,6.4-10.8,15.6-16.3,23.3.4.4.5.5.7.6,3.9,2.6,5.3,5.8,3.9,9.2-1.4,3.6-4.5,5.3-9,4.5-1.5-.3-2.2.4-3,1.2-3.9,4-7.8,8.1-11.7,12.1-.7.7-1,1.5-.9,2.6.6,4.4-1.6,7.5-5.5,8.1-3.7.5-6.7-2.1-7.2-6.6-.1-1.1-.4-2-1.3-2.8-2.6-2.3-8.6-1.7-10.7,1.2-5.4,7.5-10.7,15-16,22.5-.7,1-1.1,1.9-.6,3.2,1.2,3.1.1,5.7-2.4,7.7-2.3,1.8-4.8,2-7.3.7-2.7-1.3-4-3.9-3.6-7.2.2-1.4-.2-2.4-1.1-3.4-4.5-4.8-9-9.7-13.4-14.6-2.3-2.6-4.3-5-8.6-4.3-2,.3-3.6.5-5,1.8-4.5,4.2-9,8.5-13.6,12.7-1.4,1.3-2.3,2.5-2.4,4.6-.2,3.8-3.8,6.5-7.2,5.9-3.6-.6-6.2-4.1-5.6-7.6.6-3.5,4-5.8,7.8-5.1,1.4.3,2.4,0,3.4-1,5.1-4.8,10.2-9.5,15.3-14.3.9-.9,1.2-1.8,1-3.1-.5-3.1.6-5.8,3.3-7.5,2.7-1.7,5.5-1.6,8.2.1,2.7,1.8,3.7,4.5,3,7.6-.4,1.7.2,2.7,1.2,3.8,5.1,5.5,10.2,11.1,15.3,16.7,2.1,2.3,6.9,2.1,8.7-.5,5.3-7.3,10.5-14.6,15.7-22,.8-1.1,1.1-2,.7-3.5-1.2-4.5,1.2-8.4,5.4-9.3,3.9-.8,7.3,2,8.2,6.7.4,2.1,3.4,4.7,5.2,4.6,3.5-.1,6.5-1.2,8.8-4.1,1.9-2.3,4.2-4.3,6.3-6.4,2.8-2.6,5.9-5.1,4.3-9.5-1.4,1.4-.1,3.8-1.8,5.4-6.7,6.5-14.9,6.8-21.9.6-1.8-1.6-3.4-3.5-5.3-5-3.8-3.1-8-2.9-11.4.6-2.2,2.1-3.6,4.8-5.1,7.4-2,3.6-3.8,7.4-6.4,10.7-4.3,5.6-9.5,5.7-14,.2-1.7-2.1-3.1-4.5-4.4-6.8-2.6-4.7-5-9.7-8.7-13.7-5.5-6.1-10.6-5.8-15.7.7-2.9,3.7-4.9,7.9-6.8,12.1-2.2,4.8-4.5,9.7-7.7,14-5.7,7.7-12.5,7.4-17.6-.7-2.4-3.8-4.1-7.9-5.3-12.2-2.8-9.7-5.3-19.4-8.2-29-1.4-4.6-3.1-9.2-6.2-13.1-2.8-3.6-5.6-3.6-8.7-.2-.8.9-1.6,2-2.4,2.9-2.5,2.7-5.2,2.9-7.8.3-2-2-3.6-4.3-5.5-6.4-1.7-2-3.6-3.7-6.4-4,.1,51,44,107.3,114,108.5M101.06,206.99c1.1,2.1,2.5,3.9,4.3,5.5,9.5,8.3,26.7,7.5,35.4-1.6.7-.7,1.3-1.4,1.3-2.5v-14.8c0-1.4-.5-2.2-2-2.2h-15.4c-2.7,0-2,2.1-2,3.6s-.5,3.6,2.2,3.5h5.8c.9,0,1.7,0,2.2,1,.8,1.7.1,5.7-1.3,7.1-6.3,6-18.6,3.8-22.1-4.1-2.6-5.9-2.8-12.1-.2-18.1,3.9-9.3,17-11,22.9-3,1.2,1.6,2.3,2.1,4.1,1.4,1.1-.4,2.2-.8,3.3-1.1,1.8-.5,2-1.6,1.3-3.1-1.2-2.6-3.1-4.7-5.4-6.4-4.8-3.6-10.4-4.1-16.1-3.7-8.5.6-15,4.6-18.7,12.3-4.3,8.6-3.9,17.3.4,26.2M161.96,212.39c0-3.9.1-7.7,0-11.6-.1-2.4.7-3.5,3.3-3.4,3.3.2,6.6,0,9.9,0,4.8,0,4.6,0,4.7-4.8,0-2.4-.9-3.3-3.2-3.2-4,.1-7.9,0-11.9,0-1.9,0-2.9-.7-2.8-2.8.1-1.9.1-3.9,0-5.8-.2-2.7.7-3.8,3.6-3.7,4.8.2,9.7,0,14.5.1,3.2.1,2.6-2.1,2.7-4,.1-1.8.2-3.5-2.5-3.5-8.4.1-16.8,0-25.3,0-1.8,0-2.7.6-2.7,2.5.2,14.1-.4,28.3.4,42.4,0,.8-.1,1.8.6,2.1,2.4.9,5,.7,7.4.2,2.1-.4,1-2.6,1.3-4.5M203.86,194.99c0,6.4.1,12.8,0,19.2,0,2.1.6,3.4,3,3,.7-.1,1.4,0,2,0,2.8,0,4.2-1.37,4.2-4.1,0-10.8.1-21.7,0-32.5,0-2.4.8-3.6,3.4-3.4,2.8.2,5.6,0,8.4.1,2.6.1,2.8-1.4,2.7-3.3-.1-1.8.8-4.1-2.5-4.2-10.9-.1-21.9-.2-32.8-.4-1.8,0-2.5.7-2.4,2.4,0,1,.1,1.9,0,2.9-.1,1.9.8,2.6,2.7,2.5,2.7-.1,5.4.1,8.1,0,2.2-.1,3.2.8,3.1,3,0,4.7.1,9.5.1,14.8M39.16,142.89c6.4,5,12.7,10,19,14.9,4-4.4,4-6.2-.1-9.5-4.7-3.8-9.5-7.6-14.2-11.5-1.7-1.4-3.1-1.6-4.3.4-1,1.7-3.9,3.1-.4,5.7M35.86,147.99c-.4-.2-.9-.7-1.3-.3-1.7,1.4-1.8,7.1-.1,8.5,4.3,3.6,8.7,7,13.1,10.6.8.6,1.6,1.3,2.6.6,1.6-1.1,3.4-2.2,4.7-4.3-6.3-5-12.5-10-19-15.1M52.76,136.19c2.6,2,5,4.4,8.6,6.1-.3-5.2-2.2-9.2-4.4-13.1-.2-.3-.9-.6-1.3-.5-2.8.4-5.6.9-8,2.7,1.2,2.2,3.1,3.2,5.1,4.8M42.26,170.39c-2.8-2.3-5.3-4.9-8.7-6.8.1,2.9.6,5.3,1.3,7.6,1.3,4.2,1.4,4.3,5.3,2.3,1-.6,3.2-.6,2.1-3.1h0Z"/>
  <rect class="st2" x="89.36" y="167.59" width="145.4" height="50.6"/>
  <g class="st1">
    <text class="st0" transform="translate(86.12 201.97)"><tspan x="0" y="0">BioGSP</tspan></text>
  </g>
</svg>